{
    "asset" : {
        "generator" : "Khronos glTF Blender I/O v1.1.45",
        "version" : "2.0"
    },
    "scene" : 0,
    "scenes" : [
        {
            "name" : "Scene",
            "nodes" : [
                0
            ]
        }
    ],
    "nodes" : [
        {
            "mesh" : 0,
            "name" : "players_car_1"
        }
    ],
    "animations" : [
        {
            "channels" : [
                {
                    "sampler" : 0,
                    "target" : {
                        "node" : 0,
                        "path" : "translation"
                    }
                },
                {
                    "sampler" : 1,
                    "target" : {
                        "node" : 0,
                        "path" : "rotation"
                    }
                }
            ],
            "name" : "players_car_1|Take 001|BaseLayer.001",
            "samplers" : [
                {
                    "input" : 4,
                    "interpolation" : "STEP",
                    "output" : 5
                },
                {
                    "input" : 4,
                    "interpolation" : "STEP",
                    "output" : 6
                }
            ]
        }
    ],
    "materials" : [
        {
            "doubleSided" : true,
            "emissiveFactor" : [
                0,
                0,
                0
            ],
            "name" : "player_car_01_mat",
            "normalTexture" : {
                "index" : 0,
                "texCoord" : 0
            },
            "pbrMetallicRoughness" : {
                "baseColorFactor" : [
                    1,
                    1,
                    1,
                    1
                ],
                "metallicFactor" : 0,
                "roughnessFactor" : 0.7669119834899902
            }
        }
    ],
    "meshes" : [
        {
            "name" : "Mesh.001",
            "primitives" : [
                {
                    "attributes" : {
                        "POSITION" : 0,
                        "NORMAL" : 1,
                        "TEXCOORD_0" : 2
                    },
                    "indices" : 3,
                    "material" : 0
                }
            ]
        }
    ],
    "textures" : [
        {
            "source" : 0
        }
    ],
    "images" : [
        {
            "mimeType" : "image/png",
            "name" : "player_car_01_mat",
            "uri" : "player_car_01_mat.png"
        }
    ],
    "accessors" : [
        {
            "bufferView" : 0,
            "componentType" : 5126,
            "count" : 4690,
            "max" : [
                1.0260709524154663,
                1.4497311115264893,
                1.9624768495559692
            ],
            "min" : [
                -1.0260709524154663,
                0.03254193440079689,
                -2.51741886138916
            ],
            "type" : "VEC3"
        },
        {
            "bufferView" : 1,
            "componentType" : 5126,
            "count" : 4690,
            "type" : "VEC3"
        },
        {
            "bufferView" : 2,
            "componentType" : 5126,
            "count" : 4690,
            "type" : "VEC2"
        },
        {
            "bufferView" : 3,
            "componentType" : 5123,
            "count" : 14535,
            "type" : "SCALAR"
        },
        {
            "bufferView" : 4,
            "componentType" : 5126,
            "count" : 1,
            "max" : [
                0.03333333333333333
            ],
            "min" : [
                0.03333333333333333
            ],
            "type" : "SCALAR"
        },
        {
            "bufferView" : 5,
            "componentType" : 5126,
            "count" : 1,
            "type" : "VEC3"
        },
        {
            "bufferView" : 6,
            "componentType" : 5126,
            "count" : 1,
            "type" : "VEC4"
        }
    ],
    "bufferViews" : [
        {
            "buffer" : 0,
            "byteLength" : 56280,
            "byteOffset" : 0
        },
        {
            "buffer" : 0,
            "byteLength" : 56280,
            "byteOffset" : 56280
        },
        {
            "buffer" : 0,
            "byteLength" : 37520,
            "byteOffset" : 112560
        },
        {
            "buffer" : 0,
            "byteLength" : 29070,
            "byteOffset" : 150080
        },
        {
            "buffer" : 0,
            "byteLength" : 4,
            "byteOffset" : 179152
        },
        {
            "buffer" : 0,
            "byteLength" : 12,
            "byteOffset" : 179156
        },
        {
            "buffer" : 0,
            "byteLength" : 16,
            "byteOffset" : 179168
        }
    ],
    "buffers" : [
        {
            "byteLength" : 179184,
            "uri" : "player_car_01.bin"
        }
    ]
}
