{
    "asset" : {
        "generator" : "Khronos glTF Blender I/O v3.4.50",
        "version" : "2.0"
    },
    "scene" : 0,
    "scenes" : [
        {
            "name" : "Scene",
            "nodes" : [
                0
            ]
        }
    ],
    "nodes" : [
        {
            "mesh" : 0,
            "name" : "players_car_1"
        }
    ],
    "animations" : [
        {
            "channels" : [
                {
                    "sampler" : 0,
                    "target" : {
                        "node" : 0,
                        "path" : "translation"
                    }
                },
                {
                    "sampler" : 1,
                    "target" : {
                        "node" : 0,
                        "path" : "rotation"
                    }
                }
            ],
            "name" : "players_car_1|Take 001|BaseLayer.001",
            "samplers" : [
                {
                    "input" : 3,
                    "interpolation" : "STEP",
                    "output" : 4
                },
                {
                    "input" : 3,
                    "interpolation" : "STEP",
                    "output" : 5
                }
            ]
        }
    ],
    "materials" : [
        {
            "doubleSided" : true,
            "name" : "car_very_bad",
            "normalTexture" : {
                "index" : 0
            },
            "pbrMetallicRoughness" : {
                "metallicFactor" : 0,
                "roughnessFactor" : 0.7669119834899902
            }
        }
    ],
    "meshes" : [
        {
            "name" : "Mesh.001",
            "primitives" : [
                {
                    "attributes" : {
                        "POSITION" : 0,
                        "TEXCOORD_0" : 1
                    },
                    "indices" : 2,
                    "material" : 0
                }
            ]
        }
    ],
    "textures" : [
        {
            "sampler" : 0,
            "source" : 0
        }
    ],
    "images" : [
        {
            "mimeType" : "image/png",
            "name" : "player_car_01_mat",
            "uri" : "player_car_01_mat.png"
        }
    ],
    "accessors" : [
        {
            "bufferView" : 0,
            "componentType" : 5126,
            "count" : 4690,
            "max" : [
                1.0260709524154663,
                1.4497311115264893,
                1.9624768495559692
            ],
            "min" : [
                -1.0260709524154663,
                0.03254193440079689,
                -2.51741886138916
            ],
            "type" : "VEC3"
        },
        {
            "bufferView" : 1,
            "componentType" : 5126,
            "count" : 4690,
            "type" : "VEC2"
        },
        {
            "bufferView" : 2,
            "componentType" : 5123,
            "count" : 14535,
            "type" : "SCALAR"
        },
        {
            "bufferView" : 3,
            "componentType" : 5126,
            "count" : 1,
            "max" : [
                0.033333336313565574
            ],
            "min" : [
                0.033333336313565574
            ],
            "type" : "SCALAR"
        },
        {
            "bufferView" : 4,
            "componentType" : 5126,
            "count" : 1,
            "type" : "VEC3"
        },
        {
            "bufferView" : 5,
            "componentType" : 5126,
            "count" : 1,
            "type" : "VEC4"
        }
    ],
    "bufferViews" : [
        {
            "buffer" : 0,
            "byteLength" : 56280,
            "byteOffset" : 0,
            "target" : 34962
        },
        {
            "buffer" : 0,
            "byteLength" : 37520,
            "byteOffset" : 56280,
            "target" : 34962
        },
        {
            "buffer" : 0,
            "byteLength" : 29070,
            "byteOffset" : 93800,
            "target" : 34963
        },
        {
            "buffer" : 0,
            "byteLength" : 4,
            "byteOffset" : 122872
        },
        {
            "buffer" : 0,
            "byteLength" : 12,
            "byteOffset" : 122876
        },
        {
            "buffer" : 0,
            "byteLength" : 16,
            "byteOffset" : 122888
        }
    ],
    "samplers" : [
        {
            "magFilter" : 9729,
            "minFilter" : 9987
        }
    ],
    "buffers" : [
        {
            "byteLength" : 122904,
            "uri" : "car_very_bad.bin"
        }
    ]
}
